name rise49.8558peak67.6521fall70.3087.mot
datacolumns 19
datarows 36
range 21.39992300000000 21.45825200000000
endheader
time	ground_force1_vx	ground_force1_vy	ground_force1_vz	ground_force1_px	ground_force1_py	ground_force1_pz	ground_force2_vx	ground_force2_vy	ground_force2_vz	ground_force2_px	ground_force2_py	ground_force2_pz	ground_torque1_x	ground_torque1_y	ground_torque1_z	ground_torque2_x	ground_torque2_y	ground_torque2_z	
21.39992300000000	-5.10349400000000	705.21913900000004	45.45406300000000	0.23556500000000	0.00000000000000	0.12770700000000	0.00000000000000	0.00000000000000	0.00000000000000	0.00000000000000	0.00000000000000	0.00000000000000	0.00000000000000	21.32018400000000	0.00000000000000	0.00000000000000	0.00000000000000	0.00000000000000	
21.40158600000000	-5.40024800000000	705.38872200000003	45.48893500000000	0.23506500000000	0.00000000000000	0.12769100000000	0.00000000000000	0.00000000000000	0.00000000000000	0.00000000000000	0.00000000000000	0.00000000000000	0.00000000000000	21.37375400000000	0.00000000000000	0.00000000000000	0.00000000000000	0.00000000000000	
21.40325100000000	-5.69922800000000	705.59616800000003	45.52682300000000	0.23457000000000	0.00000000000000	0.12767400000000	0.00000000000000	0.00000000000000	0.00000000000000	0.00000000000000	0.00000000000000	0.00000000000000	0.00000000000000	21.43084500000000	0.00000000000000	0.00000000000000	0.00000000000000	0.00000000000000	
21.40491700000000	-6.00087100000000	705.84032999999999	45.56740200000000	0.23407700000000	0.00000000000000	0.12765600000000	0.00000000000000	0.00000000000000	0.00000000000000	0.00000000000000	0.00000000000000	0.00000000000000	0.00000000000000	21.49127000000000	0.00000000000000	0.00000000000000	0.00000000000000	0.00000000000000	
21.40658300000000	-6.30559800000000	706.12008000000003	45.61035900000000	0.23358400000000	0.00000000000000	0.12763700000000	0.00000000000000	0.00000000000000	0.00000000000000	0.00000000000000	0.00000000000000	0.00000000000000	0.00000000000000	21.55484800000000	0.00000000000000	0.00000000000000	0.00000000000000	0.00000000000000	
21.40825300000000	-6.61380800000000	706.43431799999996	45.65539600000000	0.23309000000000	0.00000000000000	0.12761700000000	0.00000000000000	0.00000000000000	0.00000000000000	0.00000000000000	0.00000000000000	0.00000000000000	0.00000000000000	21.62140000000000	0.00000000000000	0.00000000000000	0.00000000000000	0.00000000000000	
21.40992200000000	-6.92588000000000	706.78197599999999	45.70222900000000	0.23259100000000	0.00000000000000	0.12759700000000	0.00000000000000	0.00000000000000	0.00000000000000	0.00000000000000	0.00000000000000	0.00000000000000	0.00000000000000	21.69075300000000	0.00000000000000	0.00000000000000	0.00000000000000	0.00000000000000	
21.41158700000000	-7.24217100000000	707.16202599999997	45.75059200000000	0.23208600000000	0.00000000000000	0.12757500000000	0.00000000000000	0.00000000000000	0.00000000000000	0.00000000000000	0.00000000000000	0.00000000000000	0.00000000000000	21.76273900000000	0.00000000000000	0.00000000000000	0.00000000000000	0.00000000000000	
21.41325000000000	-7.56301100000000	707.57348500000001	45.80023000000000	0.23157300000000	0.00000000000000	0.12755300000000	0.00000000000000	0.00000000000000	0.00000000000000	0.00000000000000	0.00000000000000	0.00000000000000	0.00000000000000	21.83719300000000	0.00000000000000	0.00000000000000	0.00000000000000	0.00000000000000	
21.41492100000000	-7.88870900000000	708.01542300000006	45.85090700000000	0.23104900000000	0.00000000000000	0.12753000000000	0.00000000000000	0.00000000000000	0.00000000000000	0.00000000000000	0.00000000000000	0.00000000000000	0.00000000000000	21.91395800000000	0.00000000000000	0.00000000000000	0.00000000000000	0.00000000000000	
21.41658700000000	-8.21954200000000	708.48696700000005	45.90240300000000	0.23051400000000	0.00000000000000	0.12750600000000	0.00000000000000	0.00000000000000	0.00000000000000	0.00000000000000	0.00000000000000	0.00000000000000	0.00000000000000	21.99288100000000	0.00000000000000	0.00000000000000	0.00000000000000	0.00000000000000	
21.41825600000000	-8.55576400000000	708.98730599999999	45.95451300000000	0.22996600000000	0.00000000000000	0.12748100000000	0.00000000000000	0.00000000000000	0.00000000000000	0.00000000000000	0.00000000000000	0.00000000000000	0.00000000000000	22.07381700000000	0.00000000000000	0.00000000000000	0.00000000000000	0.00000000000000	
21.41991500000000	-8.89759800000000	709.51569300000006	46.00705000000000	0.22940200000000	0.00000000000000	0.12745600000000	0.00000000000000	0.00000000000000	0.00000000000000	0.00000000000000	0.00000000000000	0.00000000000000	0.00000000000000	22.15662500000000	0.00000000000000	0.00000000000000	0.00000000000000	0.00000000000000	
21.42158800000000	-9.24523900000000	710.07145200000002	46.05984400000000	0.22882200000000	0.00000000000000	0.12743000000000	0.00000000000000	0.00000000000000	0.00000000000000	0.00000000000000	0.00000000000000	0.00000000000000	0.00000000000000	22.24117300000000	0.00000000000000	0.00000000000000	0.00000000000000	0.00000000000000	
21.42325700000000	-9.59885000000000	710.65398100000004	46.11274100000000	0.22822400000000	0.00000000000000	0.12740300000000	0.00000000000000	0.00000000000000	0.00000000000000	0.00000000000000	0.00000000000000	0.00000000000000	0.00000000000000	22.32733400000000	0.00000000000000	0.00000000000000	0.00000000000000	0.00000000000000	
21.42491400000000	-9.95856700000000	711.26275099999998	46.16560600000000	0.22760700000000	0.00000000000000	0.12737500000000	0.00000000000000	0.00000000000000	0.00000000000000	0.00000000000000	0.00000000000000	0.00000000000000	0.00000000000000	22.41498700000000	0.00000000000000	0.00000000000000	0.00000000000000	0.00000000000000	
21.42658100000000	-10.32449200000000	711.89731200000006	46.21831900000000	0.22697100000000	0.00000000000000	0.12734700000000	0.00000000000000	0.00000000000000	0.00000000000000	0.00000000000000	0.00000000000000	0.00000000000000	0.00000000000000	22.50401900000000	0.00000000000000	0.00000000000000	0.00000000000000	0.00000000000000	
21.42825400000000	-10.69669700000000	712.55729199999996	46.27078000000000	0.22631500000000	0.00000000000000	0.12731800000000	0.00000000000000	0.00000000000000	0.00000000000000	0.00000000000000	0.00000000000000	0.00000000000000	0.00000000000000	22.59432400000000	0.00000000000000	0.00000000000000	0.00000000000000	0.00000000000000	
21.42991600000000	-11.07522400000000	713.24239999999998	46.32290400000000	0.22563800000000	0.00000000000000	0.12728800000000	0.00000000000000	0.00000000000000	0.00000000000000	0.00000000000000	0.00000000000000	0.00000000000000	0.00000000000000	22.68580200000000	0.00000000000000	0.00000000000000	0.00000000000000	0.00000000000000	
21.43158900000000	-11.46008200000000	713.95242299999995	46.37462700000000	0.22493900000000	0.00000000000000	0.12725700000000	0.00000000000000	0.00000000000000	0.00000000000000	0.00000000000000	0.00000000000000	0.00000000000000	0.00000000000000	22.77836100000000	0.00000000000000	0.00000000000000	0.00000000000000	0.00000000000000	
21.43325400000000	-11.85125100000000	714.68722800000000	46.42589800000000	0.22421900000000	0.00000000000000	0.12722600000000	0.00000000000000	0.00000000000000	0.00000000000000	0.00000000000000	0.00000000000000	0.00000000000000	0.00000000000000	22.87191400000000	0.00000000000000	0.00000000000000	0.00000000000000	0.00000000000000	
21.43491900000000	-12.24867900000000	715.44676000000004	46.47668700000000	0.22347800000000	0.00000000000000	0.12719300000000	0.00000000000000	0.00000000000000	0.00000000000000	0.00000000000000	0.00000000000000	0.00000000000000	0.00000000000000	22.96638300000000	0.00000000000000	0.00000000000000	0.00000000000000	0.00000000000000	
21.43658100000000	-12.65228400000000	716.23104000000001	46.52698100000000	0.22271500000000	0.00000000000000	0.12716000000000	0.00000000000000	0.00000000000000	0.00000000000000	0.00000000000000	0.00000000000000	0.00000000000000	0.00000000000000	23.06169400000000	0.00000000000000	0.00000000000000	0.00000000000000	0.00000000000000	
21.43825400000000	-13.06195400000000	717.04016600000000	46.57678300000000	0.22193100000000	0.00000000000000	0.12712600000000	0.00000000000000	0.00000000000000	0.00000000000000	0.00000000000000	0.00000000000000	0.00000000000000	0.00000000000000	23.15778000000000	0.00000000000000	0.00000000000000	0.00000000000000	0.00000000000000	
21.43991900000000	-13.47754800000000	717.87430300000005	46.62611500000000	0.22112700000000	0.00000000000000	0.12709100000000	0.00000000000000	0.00000000000000	0.00000000000000	0.00000000000000	0.00000000000000	0.00000000000000	0.00000000000000	23.25458200000000	0.00000000000000	0.00000000000000	0.00000000000000	0.00000000000000	
21.44158900000000	-13.89889700000000	718.73368600000003	46.67501400000000	0.22030200000000	0.00000000000000	0.12705500000000	0.00000000000000	0.00000000000000	0.00000000000000	0.00000000000000	0.00000000000000	0.00000000000000	0.00000000000000	23.35204400000000	0.00000000000000	0.00000000000000	0.00000000000000	0.00000000000000	
21.44325400000000	-14.32580300000000	719.61861499999998	46.72353600000000	0.21945800000000	0.00000000000000	0.12701700000000	0.00000000000000	0.00000000000000	0.00000000000000	0.00000000000000	0.00000000000000	0.00000000000000	0.00000000000000	23.45011600000000	0.00000000000000	0.00000000000000	0.00000000000000	0.00000000000000	
21.44492500000000	-14.75804200000000	720.52944700000000	46.77175200000000	0.21859600000000	0.00000000000000	0.12697900000000	0.00000000000000	0.00000000000000	0.00000000000000	0.00000000000000	0.00000000000000	0.00000000000000	0.00000000000000	23.54875600000000	0.00000000000000	0.00000000000000	0.00000000000000	0.00000000000000	
21.44658400000000	-15.19536500000000	721.46659399999999	46.81975200000000	0.21771600000000	0.00000000000000	0.12694000000000	0.00000000000000	0.00000000000000	0.00000000000000	0.00000000000000	0.00000000000000	0.00000000000000	0.00000000000000	23.64792300000000	0.00000000000000	0.00000000000000	0.00000000000000	0.00000000000000	
21.44825000000000	-15.63749800000000	722.43051600000001	46.86763900000000	0.21682000000000	0.00000000000000	0.12689900000000	0.00000000000000	0.00000000000000	0.00000000000000	0.00000000000000	0.00000000000000	0.00000000000000	0.00000000000000	23.74758200000000	0.00000000000000	0.00000000000000	0.00000000000000	0.00000000000000	
21.44991600000000	-16.08414200000000	723.42171399999995	46.91553400000000	0.21590900000000	0.00000000000000	0.12685800000000	0.00000000000000	0.00000000000000	0.00000000000000	0.00000000000000	0.00000000000000	0.00000000000000	0.00000000000000	23.84770300000000	0.00000000000000	0.00000000000000	0.00000000000000	0.00000000000000	
21.45158600000000	-16.53497800000000	724.44072800000004	46.96357300000000	0.21498400000000	0.00000000000000	0.12681500000000	0.00000000000000	0.00000000000000	0.00000000000000	0.00000000000000	0.00000000000000	0.00000000000000	0.00000000000000	23.94825700000000	0.00000000000000	0.00000000000000	0.00000000000000	0.00000000000000	
21.45325600000000	-16.98966400000000	725.48812399999997	47.01190500000000	0.21404600000000	0.00000000000000	0.12677000000000	0.00000000000000	0.00000000000000	0.00000000000000	0.00000000000000	0.00000000000000	0.00000000000000	0.00000000000000	24.04921900000000	0.00000000000000	0.00000000000000	0.00000000000000	0.00000000000000	
21.45492000000000	-17.44784100000000	726.56448899999998	47.06069700000000	0.21309800000000	0.00000000000000	0.12672500000000	0.00000000000000	0.00000000000000	0.00000000000000	0.00000000000000	0.00000000000000	0.00000000000000	0.00000000000000	24.15056900000000	0.00000000000000	0.00000000000000	0.00000000000000	0.00000000000000	
21.45658400000000	-17.90913000000000	727.67042500000002	47.11012600000000	0.21214100000000	0.00000000000000	0.12667800000000	0.00000000000000	0.00000000000000	0.00000000000000	0.00000000000000	0.00000000000000	0.00000000000000	0.00000000000000	24.25228600000000	0.00000000000000	0.00000000000000	0.00000000000000	0.00000000000000	
21.45825200000000	-18.37313600000000	728.80653900000004	47.16038600000000	0.21117600000000	0.00000000000000	0.12662900000000	0.00000000000000	0.00000000000000	0.00000000000000	0.00000000000000	0.00000000000000	0.00000000000000	0.00000000000000	24.35435100000000	0.00000000000000	0.00000000000000	0.00000000000000	0.00000000000000	
